<svg width="873" height="71" viewBox="0 0 873 71" fill="none" xmlns="http://www.w3.org/2000/svg">
<path d="M21.504 69.0002L0 1.80024H23.328L40.704 58.5362H28.992L47.424 1.80024H68.256L85.44 58.5362H74.208L92.352 1.80024H113.856L92.352 69.0002H68.064L54.048 22.5362H60.576L45.792 69.0002H21.504ZM139.623 26.7602H169.575V43.0802H139.623V26.7602ZM141.159 51.9122H174.759V69.0002H118.887V1.80024H173.511V18.8882H141.159V51.9122ZM204.966 69.0002L234.342 1.80024H256.614L285.99 69.0002H262.566L240.87 12.5522H249.702L228.006 69.0002H204.966ZM222.438 57.2882L228.198 40.9682H259.11L264.87 57.2882H222.438ZM289.606 69.0002V1.80024H321.958C328.23 1.80024 333.638 2.82424 338.182 4.87224C342.79 6.92024 346.342 9.86424 348.838 13.7042C351.334 17.4802 352.582 21.9602 352.582 27.1442C352.582 32.3282 351.334 36.8082 348.838 40.5842C346.342 44.2962 342.79 47.1442 338.182 49.1282C333.638 51.1122 328.23 52.1042 321.958 52.1042H302.182L312.262 42.7922V69.0002H289.606ZM329.83 69.0002L313.318 44.5202H337.318L354.022 69.0002H329.83ZM312.262 45.2882L302.182 35.0162H320.518C323.654 35.0162 325.958 34.3122 327.43 32.9042C328.966 31.4962 329.734 29.5762 329.734 27.1442C329.734 24.7122 328.966 22.7922 327.43 21.3842C325.958 19.9762 323.654 19.2722 320.518 19.2722H302.182L312.262 9.00024V45.2882ZM381.873 26.7602H411.825V43.0802H381.873V26.7602ZM383.409 51.9122H417.009V69.0002H361.137V1.80024H415.761V18.8882H383.409V51.9122Z" fill="url(#paint0_linear_795_1292)"/>
<path d="M473.439 69.1996C472.487 69.1996 471.634 68.6134 471.295 67.726L447.192 4.72281C446.618 3.22349 447.728 1.61573 449.337 1.61573H470.647C471.666 1.61573 472.564 2.28686 472.85 3.26337L479.536 26.0826C480.584 29.6526 481.355 32.6686 481.849 35.1307C482.354 37.5026 482.687 39.7317 482.849 41.8179C482.859 41.9517 482.97 42.0553 483.105 42.0553C483.233 42.0553 483.342 41.9607 483.359 41.8339C483.665 39.6224 484.087 37.2957 484.624 34.8537C485.21 32.3301 485.95 29.591 486.844 26.6365L493.936 3.24294C494.229 2.27668 495.121 1.61573 496.133 1.61573H516.955C518.562 1.61573 519.672 3.22134 519.101 4.72025L495.084 67.7235C494.746 68.6122 493.892 69.1996 492.939 69.1996H473.439Z" fill="url(#paint1_linear_795_1292)"/>
<path d="M554.015 48.2874C557.437 48.2874 560.182 47.1333 562.248 44.8251C564.344 42.4861 565.393 39.3931 565.393 35.5462C565.393 31.6684 564.344 28.56 562.248 26.2211C560.182 23.8513 557.437 22.6664 554.015 22.6664C550.592 22.6664 547.832 23.8513 545.736 26.2211C543.639 28.5908 542.591 31.6992 542.591 35.5462C542.591 39.3931 543.639 42.4861 545.736 44.8251C547.832 47.1333 550.592 48.2874 554.015 48.2874ZM590.23 35.5462C590.23 40.5011 589.351 45.1175 587.594 49.3953C585.836 53.6424 583.261 57.4432 579.87 60.7978C576.478 64.0908 572.562 66.6144 568.122 68.3687C563.712 70.1229 559.01 71 554.015 71C548.958 71 544.225 70.1229 539.815 68.3687C535.406 66.6144 531.49 64.06 528.067 60.7055C524.706 57.4432 522.163 53.6885 520.436 49.4415C518.709 45.1944 517.846 40.5626 517.846 35.5462C517.846 30.5297 518.709 25.8825 520.436 21.6047C522.163 17.3268 524.706 13.5568 528.067 10.2945C531.459 6.97074 535.36 4.44712 539.769 2.72367C544.179 0.969441 548.927 0.0923277 554.015 0.0923277C559.102 0.0923277 563.851 0.969441 568.26 2.72367C572.67 4.44712 576.586 6.97074 580.008 10.2945C583.339 13.5876 585.867 17.373 587.594 21.6508C589.351 25.9287 590.23 30.5605 590.23 35.5462Z" fill="url(#paint2_linear_795_1292)"/>
<path d="M599.995 69.1996C598.728 69.1996 597.7 68.1742 597.7 66.9093V3.90605C597.7 2.64114 598.728 1.61573 599.995 1.61573H619.779C621.047 1.61573 622.075 2.64115 622.075 3.90606V44.9815C622.075 46.2464 623.102 47.2718 624.37 47.2718H643.46C644.728 47.2718 645.756 48.2972 645.756 49.5621V66.9093C645.756 68.1742 644.728 69.1996 643.46 69.1996H599.995Z" fill="url(#paint3_linear_795_1292)"/>
<path d="M701.595 23.0686C701.595 25.0858 699.097 26.183 697.394 25.0965C696.534 24.5484 695.668 24.0769 694.796 23.6821C692.483 22.6357 690.047 22.1125 687.488 22.1125C683.51 22.1125 680.303 23.3435 677.867 25.8056C675.462 28.2369 674.26 31.4837 674.26 35.5462C674.26 39.5163 675.416 42.6862 677.729 45.0559C680.041 47.4257 683.14 48.6105 687.025 48.6105C689.369 48.6105 691.743 48.1181 694.148 47.1333C695.418 46.6039 696.746 45.9157 698.133 45.0686C699.782 44.0613 702.014 45.218 701.955 47.1463L701.363 66.2796C701.335 67.1849 700.777 67.9937 699.926 68.3083C697.738 69.1171 695.55 69.7374 693.362 70.169C690.71 70.723 688.058 71 685.407 71C682.107 71 678.931 70.6307 675.879 69.8921C672.826 69.1534 670.066 68.1071 667.6 66.7529C661.618 63.306 657.085 58.9512 654.001 53.6885C650.949 48.4259 649.422 42.3784 649.422 35.5462C649.422 30.4989 650.286 25.821 652.013 21.5124C653.77 17.2037 656.314 13.4029 659.644 10.1099C663.005 6.78609 666.89 4.27785 671.3 2.58518C675.74 0.861725 680.535 0 685.684 0C688.428 0 691.126 0.292371 693.778 0.877113C695.982 1.33211 698.133 1.98434 700.232 2.8338C701.068 3.17216 701.595 3.99485 701.595 4.89517V23.0686Z" fill="url(#paint4_linear_795_1292)"/>
<path d="M806.714 69.1996C805.446 69.1996 804.419 68.1742 804.419 66.9093V3.90602C804.419 2.64111 805.446 1.6157 806.714 1.6157H826.978C827.788 1.6157 828.538 2.0417 828.952 2.73666L846.641 32.46C847.187 33.3772 848.797 32.8252 848.728 31.7607C848.636 29.8526 848.589 27.3597 848.589 24.2822V3.90603C848.589 2.64112 849.617 1.6157 850.885 1.6157H869.744C871.011 1.6157 872.039 2.64112 872.039 3.90603V66.9093C872.039 68.1742 871.011 69.1996 869.744 69.1996H849.297C848.485 69.1996 847.735 68.7724 847.321 68.0759L829.69 38.3544C829.165 37.4709 827.658 37.9843 827.73 39.0084C827.853 40.7319 827.915 42.6707 827.915 44.8251V66.9093C827.915 68.1742 826.887 69.1996 825.619 69.1996H806.714Z" fill="url(#paint5_linear_795_1292)"/>
<path d="M760.633 65.8734C761.376 67.3948 760.266 69.1677 758.57 69.1677H710.348C708.675 69.1677 707.564 67.4381 708.263 65.9208L731.66 15.1382C732.469 13.3823 734.959 13.3538 735.808 15.0908L760.633 65.8734Z" fill="url(#paint6_linear_795_1292)"/>
<path d="M797.703 65.7999C798.518 67.3255 797.41 69.1677 795.678 69.1677H769.797C769.097 69.1677 768.458 68.7704 768.149 68.1434L746.806 24.7931C746.451 24.0728 746.5 23.2198 746.935 22.5447L759.936 2.36744C760.884 0.896349 763.068 0.985212 763.892 2.52843L797.703 65.7999Z" fill="url(#paint7_linear_795_1292)"/>
<defs>
<linearGradient id="paint0_linear_795_1292" x1="0" y1="0" x2="798.036" y2="281.096" gradientUnits="userSpaceOnUse">
<stop stop-color="#FF9040"/>
<stop offset="1" stop-color="#7862FF"/>
</linearGradient>
<linearGradient id="paint1_linear_795_1292" x1="0" y1="0" x2="798.036" y2="281.096" gradientUnits="userSpaceOnUse">
<stop stop-color="#FF9040"/>
<stop offset="1" stop-color="#7862FF"/>
</linearGradient>
<linearGradient id="paint2_linear_795_1292" x1="0" y1="0" x2="798.036" y2="281.096" gradientUnits="userSpaceOnUse">
<stop stop-color="#FF9040"/>
<stop offset="1" stop-color="#7862FF"/>
</linearGradient>
<linearGradient id="paint3_linear_795_1292" x1="0" y1="0" x2="798.036" y2="281.096" gradientUnits="userSpaceOnUse">
<stop stop-color="#FF9040"/>
<stop offset="1" stop-color="#7862FF"/>
</linearGradient>
<linearGradient id="paint4_linear_795_1292" x1="0" y1="0" x2="798.036" y2="281.096" gradientUnits="userSpaceOnUse">
<stop stop-color="#FF9040"/>
<stop offset="1" stop-color="#7862FF"/>
</linearGradient>
<linearGradient id="paint5_linear_795_1292" x1="0" y1="0" x2="798.036" y2="281.096" gradientUnits="userSpaceOnUse">
<stop stop-color="#FF9040"/>
<stop offset="1" stop-color="#7862FF"/>
</linearGradient>
<linearGradient id="paint6_linear_795_1292" x1="0" y1="0" x2="798.036" y2="281.096" gradientUnits="userSpaceOnUse">
<stop stop-color="#FF9040"/>
<stop offset="1" stop-color="#7862FF"/>
</linearGradient>
<linearGradient id="paint7_linear_795_1292" x1="0" y1="0" x2="798.036" y2="281.096" gradientUnits="userSpaceOnUse">
<stop stop-color="#FF9040"/>
<stop offset="1" stop-color="#7862FF"/>
</linearGradient>
</defs>
</svg>
