<svg width="1231" height="71" viewBox="0 0 1231 71" fill="none" xmlns="http://www.w3.org/2000/svg">
<path d="M21.504 68.736L0 1.536H23.328L40.704 58.272H28.992L47.424 1.536H68.256L85.44 58.272H74.208L92.352 1.536H113.856L92.352 68.736H68.064L54.048 22.272H60.576L45.792 68.736H21.504Z" fill="url(#paint0_linear_792_1289)"/>
<path d="M139.623 26.496H169.575V42.816H139.623V26.496ZM141.159 51.648H174.759V68.736H118.887V1.536H173.511V18.624H141.159V51.648Z" fill="url(#paint1_linear_792_1289)"/>
<path d="M247.014 70.272C241.638 70.272 236.646 69.44 232.038 67.776C227.494 66.048 223.526 63.616 220.134 60.48C216.806 57.344 214.214 53.632 212.358 49.344C210.502 45.056 209.574 40.32 209.574 35.136C209.574 29.952 210.502 25.216 212.358 20.928C214.214 16.64 216.806 12.928 220.134 9.792C223.526 6.656 227.494 4.256 232.038 2.592C236.646 0.864 241.638 0 247.014 0C253.606 0 259.43 1.152 264.486 3.456C269.606 5.76 273.83 9.088 277.158 13.44L262.854 26.208C260.87 23.712 258.662 21.792 256.23 20.448C253.862 19.04 251.174 18.336 248.166 18.336C245.798 18.336 243.654 18.72 241.734 19.488C239.814 20.256 238.15 21.376 236.742 22.848C235.398 24.32 234.342 26.112 233.574 28.224C232.806 30.272 232.422 32.576 232.422 35.136C232.422 37.696 232.806 40.032 233.574 42.144C234.342 44.192 235.398 45.952 236.742 47.424C238.15 48.896 239.814 50.016 241.734 50.784C243.654 51.552 245.798 51.936 248.166 51.936C251.174 51.936 253.862 51.264 256.23 49.92C258.662 48.512 260.87 46.56 262.854 44.064L277.158 56.832C273.83 61.12 269.606 64.448 264.486 66.816C259.43 69.12 253.606 70.272 247.014 70.272Z" fill="url(#paint2_linear_792_1289)"/>
<path d="M283.699 68.736V1.536H316.052C322.324 1.536 327.732 2.56 332.276 4.608C336.884 6.656 340.435 9.6 342.931 13.44C345.427 17.216 346.676 21.696 346.676 26.88C346.676 32.064 345.427 36.544 342.931 40.32C340.435 44.032 336.884 46.88 332.276 48.864C327.732 50.848 322.324 51.84 316.052 51.84H296.276L306.355 42.528V68.736H283.699ZM323.923 68.736L307.411 44.256H331.411L348.116 68.736H323.923ZM306.355 45.024L296.276 34.752H314.612C317.748 34.752 320.051 34.048 321.523 32.64C323.059 31.232 323.828 29.312 323.828 26.88C323.828 24.448 323.059 22.528 321.523 21.12C320.051 19.712 317.748 19.008 314.612 19.008H296.276L306.355 8.736V45.024Z" fill="url(#paint3_linear_792_1289)"/>
<path d="M375.967 26.496H405.919V42.816H375.967V26.496ZM377.503 51.648H411.103V68.736H355.231V1.536H409.855V18.624H377.503V51.648Z" fill="url(#paint4_linear_792_1289)"/>
<path d="M412.529 68.736L441.905 1.536H464.177L493.552 68.736H470.129L448.432 12.288H457.264L435.569 68.736H412.529ZM430 57.024L435.76 40.704H466.673L472.432 57.024H430Z" fill="url(#paint5_linear_792_1289)"/>
<path d="M508.385 68.736V19.104H488.705V1.536H550.721V19.104H531.041V68.736H508.385Z" fill="url(#paint6_linear_792_1289)"/>
<path d="M577.342 26.496H607.294V42.816H577.342V26.496ZM578.878 51.648H612.478V68.736H556.606V1.536H611.23V18.624H578.878V51.648Z" fill="url(#paint7_linear_792_1289)"/>
<path d="M682.141 70.272C671.837 70.272 663.805 67.488 658.045 61.92C652.285 56.352 649.405 48.544 649.405 38.496V1.536H672.061V37.824C672.061 42.944 672.989 46.592 674.845 48.768C676.701 50.88 679.197 51.936 682.333 51.936C685.533 51.936 688.029 50.88 689.821 48.768C691.677 46.592 692.605 42.944 692.605 37.824V1.536H714.877V38.496C714.877 48.544 711.997 56.352 706.237 61.92C700.477 67.488 692.445 70.272 682.141 70.272Z" fill="url(#paint8_linear_792_1289)"/>
<path d="M725.262 68.736V1.536H743.886L778.062 42.432H769.422V1.536H791.502V68.736H772.878L738.702 27.84H747.342V68.736H725.262Z" fill="url(#paint9_linear_792_1289)"/>
<path d="M802.418 68.736V1.536H825.074V68.736H802.418Z" fill="url(#paint10_linear_792_1289)"/>
<path d="M857.101 68.736L828.685 1.536H853.069L876.205 58.272H861.709L885.517 1.536H907.789L879.373 68.736H857.101Z" fill="url(#paint11_linear_792_1289)"/>
<path d="M930.779 26.496H960.731V42.816H930.779V26.496ZM932.315 51.648H965.915V68.736H910.043V1.536H964.667V18.624H932.315V51.648Z" fill="url(#paint12_linear_792_1289)"/>
<path d="M974.637 68.736V1.536H1006.99C1013.26 1.536 1018.67 2.56 1023.21 4.608C1027.82 6.656 1031.37 9.6 1033.87 13.44C1036.37 17.216 1037.61 21.696 1037.61 26.88C1037.61 32.064 1036.37 36.544 1033.87 40.32C1031.37 44.032 1027.82 46.88 1023.21 48.864C1018.67 50.848 1013.26 51.84 1006.99 51.84H987.213L997.293 42.528V68.736H974.637ZM1014.86 68.736L998.349 44.256H1022.35L1039.05 68.736H1014.86ZM997.293 45.024L987.213 34.752H1005.55C1008.69 34.752 1010.99 34.048 1012.46 32.64C1014 31.232 1014.77 29.312 1014.77 26.88C1014.77 24.448 1014 22.528 1012.46 21.12C1010.99 19.712 1008.69 19.008 1005.55 19.008H987.213L997.293 8.736V45.024Z" fill="url(#paint13_linear_792_1289)"/>
<path d="M1071.22 70.272C1065.59 70.272 1060.15 69.632 1054.9 68.352C1049.66 67.072 1045.34 65.408 1041.94 63.36L1049.24 46.848C1052.44 48.704 1055.99 50.208 1059.9 51.36C1063.86 52.448 1067.7 52.992 1071.42 52.992C1073.59 52.992 1075.29 52.864 1076.5 52.608C1077.78 52.288 1078.71 51.872 1079.29 51.36C1079.86 50.784 1080.15 50.112 1080.15 49.344C1080.15 48.128 1079.48 47.168 1078.14 46.464C1076.79 45.76 1075 45.184 1072.76 44.736C1070.58 44.224 1068.18 43.712 1065.56 43.2C1062.94 42.624 1060.28 41.888 1057.59 40.992C1054.97 40.096 1052.54 38.912 1050.3 37.44C1048.12 35.968 1046.36 34.048 1045.02 31.68C1043.67 29.248 1043 26.24 1043 22.656C1043 18.496 1044.15 14.72 1046.46 11.328C1048.82 7.872 1052.31 5.12 1056.92 3.072C1061.59 1.024 1067.38 0 1074.3 0C1078.84 0 1083.32 0.48 1087.74 1.44C1092.15 2.4 1096.12 3.872 1099.64 5.856L1092.82 22.272C1089.5 20.608 1086.26 19.36 1083.13 18.528C1080.06 17.696 1077.05 17.28 1074.1 17.28C1071.93 17.28 1070.2 17.472 1068.92 17.856C1067.64 18.24 1066.71 18.752 1066.14 19.392C1065.62 20.032 1065.37 20.736 1065.37 21.504C1065.37 22.656 1066.04 23.584 1067.38 24.288C1068.73 24.928 1070.49 25.472 1072.66 25.92C1074.9 26.368 1077.34 26.848 1079.96 27.36C1082.65 27.872 1085.3 28.576 1087.93 29.472C1090.55 30.368 1092.95 31.552 1095.13 33.024C1097.37 34.496 1099.16 36.416 1100.5 38.784C1101.85 41.152 1102.52 44.096 1102.52 47.616C1102.52 51.712 1101.34 55.488 1098.97 58.944C1096.66 62.336 1093.21 65.088 1088.6 67.2C1083.99 69.248 1078.2 70.272 1071.22 70.272Z" fill="url(#paint14_linear_792_1289)"/>
<path d="M1130 26.496H1159.95V42.816H1130V26.496ZM1131.53 51.648H1165.13V68.736H1109.26V1.536H1163.89V18.624H1131.53V51.648Z" fill="url(#paint15_linear_792_1289)"/>
<path d="M1198.91 70.272C1193.28 70.272 1187.84 69.632 1182.59 68.352C1177.34 67.072 1173.02 65.408 1169.63 63.36L1176.93 46.848C1180.13 48.704 1183.68 50.208 1187.58 51.36C1191.55 52.448 1195.39 52.992 1199.1 52.992C1201.28 52.992 1202.98 52.864 1204.19 52.608C1205.47 52.288 1206.4 51.872 1206.98 51.36C1207.55 50.784 1207.84 50.112 1207.84 49.344C1207.84 48.128 1207.17 47.168 1205.82 46.464C1204.48 45.76 1202.69 45.184 1200.45 44.736C1198.27 44.224 1195.87 43.712 1193.25 43.2C1190.62 42.624 1187.97 41.888 1185.28 40.992C1182.66 40.096 1180.22 38.912 1177.98 37.44C1175.81 35.968 1174.05 34.048 1172.7 31.68C1171.36 29.248 1170.69 26.24 1170.69 22.656C1170.69 18.496 1171.84 14.72 1174.14 11.328C1176.51 7.872 1180 5.12 1184.61 3.072C1189.28 1.024 1195.07 0 1201.98 0C1206.53 0 1211.01 0.48 1215.42 1.44C1219.84 2.4 1223.81 3.872 1227.33 5.856L1220.51 22.272C1217.18 20.608 1213.95 19.36 1210.82 18.528C1207.74 17.696 1204.74 17.28 1201.79 17.28C1199.62 17.28 1197.89 17.472 1196.61 17.856C1195.33 18.24 1194.4 18.752 1193.82 19.392C1193.31 20.032 1193.06 20.736 1193.06 21.504C1193.06 22.656 1193.73 23.584 1195.07 24.288C1196.42 24.928 1198.18 25.472 1200.35 25.92C1202.59 26.368 1205.02 26.848 1207.65 27.36C1210.34 27.872 1212.99 28.576 1215.62 29.472C1218.24 30.368 1220.64 31.552 1222.82 33.024C1225.06 34.496 1226.85 36.416 1228.19 38.784C1229.54 41.152 1230.21 44.096 1230.21 47.616C1230.21 51.712 1229.02 55.488 1226.66 58.944C1224.35 62.336 1220.9 65.088 1216.29 67.2C1211.68 69.248 1205.89 70.272 1198.91 70.272Z" fill="url(#paint16_linear_792_1289)"/>
<defs>
<linearGradient id="paint0_linear_792_1289" x1="0" y1="0" x2="1010.73" y2="507.439" gradientUnits="userSpaceOnUse">
<stop stop-color="#FF9040"/>
<stop offset="1" stop-color="#7862FF"/>
</linearGradient>
<linearGradient id="paint1_linear_792_1289" x1="0" y1="0" x2="1010.73" y2="507.439" gradientUnits="userSpaceOnUse">
<stop stop-color="#FF9040"/>
<stop offset="1" stop-color="#7862FF"/>
</linearGradient>
<linearGradient id="paint2_linear_792_1289" x1="0" y1="0" x2="1010.73" y2="507.439" gradientUnits="userSpaceOnUse">
<stop stop-color="#FF9040"/>
<stop offset="1" stop-color="#7862FF"/>
</linearGradient>
<linearGradient id="paint3_linear_792_1289" x1="0" y1="0" x2="1010.73" y2="507.439" gradientUnits="userSpaceOnUse">
<stop stop-color="#FF9040"/>
<stop offset="1" stop-color="#7862FF"/>
</linearGradient>
<linearGradient id="paint4_linear_792_1289" x1="0" y1="0" x2="1010.73" y2="507.439" gradientUnits="userSpaceOnUse">
<stop stop-color="#FF9040"/>
<stop offset="1" stop-color="#7862FF"/>
</linearGradient>
<linearGradient id="paint5_linear_792_1289" x1="0" y1="0" x2="1010.73" y2="507.439" gradientUnits="userSpaceOnUse">
<stop stop-color="#FF9040"/>
<stop offset="1" stop-color="#7862FF"/>
</linearGradient>
<linearGradient id="paint6_linear_792_1289" x1="0" y1="0" x2="1010.73" y2="507.439" gradientUnits="userSpaceOnUse">
<stop stop-color="#FF9040"/>
<stop offset="1" stop-color="#7862FF"/>
</linearGradient>
<linearGradient id="paint7_linear_792_1289" x1="0" y1="0" x2="1010.73" y2="507.439" gradientUnits="userSpaceOnUse">
<stop stop-color="#FF9040"/>
<stop offset="1" stop-color="#7862FF"/>
</linearGradient>
<linearGradient id="paint8_linear_792_1289" x1="0" y1="0" x2="1010.73" y2="507.439" gradientUnits="userSpaceOnUse">
<stop stop-color="#FF9040"/>
<stop offset="1" stop-color="#7862FF"/>
</linearGradient>
<linearGradient id="paint9_linear_792_1289" x1="0" y1="0" x2="1010.73" y2="507.439" gradientUnits="userSpaceOnUse">
<stop stop-color="#FF9040"/>
<stop offset="1" stop-color="#7862FF"/>
</linearGradient>
<linearGradient id="paint10_linear_792_1289" x1="0" y1="0" x2="1010.73" y2="507.439" gradientUnits="userSpaceOnUse">
<stop stop-color="#FF9040"/>
<stop offset="1" stop-color="#7862FF"/>
</linearGradient>
<linearGradient id="paint11_linear_792_1289" x1="0" y1="0" x2="1010.73" y2="507.439" gradientUnits="userSpaceOnUse">
<stop stop-color="#FF9040"/>
<stop offset="1" stop-color="#7862FF"/>
</linearGradient>
<linearGradient id="paint12_linear_792_1289" x1="0" y1="0" x2="1010.73" y2="507.439" gradientUnits="userSpaceOnUse">
<stop stop-color="#FF9040"/>
<stop offset="1" stop-color="#7862FF"/>
</linearGradient>
<linearGradient id="paint13_linear_792_1289" x1="0" y1="0" x2="1010.73" y2="507.439" gradientUnits="userSpaceOnUse">
<stop stop-color="#FF9040"/>
<stop offset="1" stop-color="#7862FF"/>
</linearGradient>
<linearGradient id="paint14_linear_792_1289" x1="0" y1="0" x2="1010.73" y2="507.439" gradientUnits="userSpaceOnUse">
<stop stop-color="#FF9040"/>
<stop offset="1" stop-color="#7862FF"/>
</linearGradient>
<linearGradient id="paint15_linear_792_1289" x1="0" y1="0" x2="1010.73" y2="507.439" gradientUnits="userSpaceOnUse">
<stop stop-color="#FF9040"/>
<stop offset="1" stop-color="#7862FF"/>
</linearGradient>
<linearGradient id="paint16_linear_792_1289" x1="0" y1="0" x2="1010.73" y2="507.439" gradientUnits="userSpaceOnUse">
<stop stop-color="#FF9040"/>
<stop offset="1" stop-color="#7862FF"/>
</linearGradient>
</defs>
</svg>
