<svg width="1247" height="71" viewBox="0 0 1247 71" fill="none" xmlns="http://www.w3.org/2000/svg">
<path d="M22.464 69.0002L0.959961 1.80016H24.288L41.664 58.5362H29.952L48.384 1.80016H69.216L86.4 58.5362H75.168L93.312 1.80016H114.816L93.312 69.0002H69.024L55.008 22.5362H61.536L46.752 69.0002H22.464Z" fill="url(#paint0_linear_792_1290)"/>
<path d="M140.583 26.7602H170.535V43.0802H140.583V26.7602ZM142.119 51.9122H175.719V69.0002H119.847V1.80016H174.471V18.8882H142.119V51.9122Z" fill="url(#paint1_linear_792_1290)"/>
<path d="M213.222 69.0002V1.80016H235.878V69.0002H213.222Z" fill="url(#paint2_linear_792_1290)"/>
<path d="M246.784 69.0002V1.80016H265.408L292.288 45.6722H282.496L308.608 1.80016H327.232L327.424 69.0002H306.784L306.592 32.9042H309.856L292 62.9522H282.016L263.392 32.9042H267.424V69.0002H246.784Z" fill="url(#paint3_linear_792_1290)"/>
<path d="M338.378 69.0002V1.80016H370.73C377.002 1.80016 382.41 2.82416 386.954 4.87216C391.562 6.92016 395.114 9.86416 397.61 13.7042C400.106 17.4802 401.354 21.9602 401.354 27.1442C401.354 32.3282 400.106 36.8082 397.61 40.5842C395.114 44.3602 391.562 47.3042 386.954 49.4162C382.41 51.4642 377.002 52.4882 370.73 52.4882H350.954L361.034 42.7922V69.0002H338.378ZM361.034 45.2882L350.954 35.0162H369.29C372.426 35.0162 374.73 34.3122 376.202 32.9042C377.738 31.4962 378.506 29.5762 378.506 27.1442C378.506 24.7122 377.738 22.7922 376.202 21.3842C374.73 19.9762 372.426 19.2722 369.29 19.2722H350.954L361.034 9.00016V45.2882Z" fill="url(#paint4_linear_792_1290)"/>
<path d="M398.113 69.0002L427.489 1.80016H449.761L479.137 69.0002H455.713L434.017 12.5522H442.849L421.153 69.0002H398.113ZM415.585 57.2882L421.345 40.9682H452.257L458.017 57.2882H415.585Z" fill="url(#paint5_linear_792_1290)"/>
<path d="M516.568 70.5362C511.192 70.5362 506.2 69.7042 501.592 68.0402C497.048 66.3122 493.08 63.8802 489.688 60.7442C486.36 57.6082 483.768 53.8962 481.912 49.6082C480.056 45.3202 479.128 40.5842 479.128 35.4002C479.128 30.2162 480.056 25.4802 481.912 21.1922C483.768 16.9042 486.36 13.1922 489.688 10.0562C493.08 6.92016 497.048 4.52016 501.592 2.85616C506.2 1.12816 511.192 0.26416 516.568 0.26416C523.16 0.26416 528.984 1.41616 534.04 3.72016C539.16 6.02416 543.384 9.35216 546.712 13.7042L532.408 26.4722C530.424 23.9762 528.216 22.0562 525.784 20.7122C523.416 19.3042 520.728 18.6002 517.72 18.6002C515.352 18.6002 513.208 18.9842 511.288 19.7522C509.368 20.5202 507.704 21.6402 506.296 23.1122C504.952 24.5842 503.896 26.3762 503.128 28.4882C502.36 30.5362 501.976 32.8402 501.976 35.4002C501.976 37.9602 502.36 40.2962 503.128 42.4082C503.896 44.4562 504.952 46.2162 506.296 47.6882C507.704 49.1602 509.368 50.2802 511.288 51.0482C513.208 51.8162 515.352 52.2002 517.72 52.2002C520.728 52.2002 523.416 51.5282 525.784 50.1842C528.216 48.7762 530.424 46.8242 532.408 44.3282L546.712 57.0962C543.384 61.3842 539.16 64.7122 534.04 67.0802C528.984 69.3842 523.16 70.5362 516.568 70.5362Z" fill="url(#paint6_linear_792_1290)"/>
<path d="M567.376 69.0002V19.3682H547.696V1.80016H609.712V19.3682H590.032V69.0002H567.376Z" fill="url(#paint7_linear_792_1290)"/>
<path d="M644.378 69.0002V1.80016H676.73C683.002 1.80016 688.41 2.82416 692.954 4.87216C697.562 6.92016 701.114 9.86416 703.61 13.7042C706.106 17.4802 707.354 21.9602 707.354 27.1442C707.354 32.3282 706.106 36.8082 703.61 40.5842C701.114 44.3602 697.562 47.3042 692.954 49.4162C688.41 51.4642 683.002 52.4882 676.73 52.4882H656.954L667.034 42.7922V69.0002H644.378ZM667.034 45.2882L656.954 35.0162H675.29C678.426 35.0162 680.73 34.3122 682.202 32.9042C683.738 31.4962 684.506 29.5762 684.506 27.1442C684.506 24.7122 683.738 22.7922 682.202 21.3842C680.73 19.9762 678.426 19.2722 675.29 19.2722H656.954L667.034 9.00016V45.2882Z" fill="url(#paint8_linear_792_1290)"/>
<path d="M750.954 70.5362C745.514 70.5362 740.458 69.6722 735.786 67.9442C731.178 66.2162 727.178 63.7842 723.786 60.6482C720.394 57.4482 717.738 53.7042 715.818 49.4162C713.962 45.1282 713.034 40.4562 713.034 35.4002C713.034 30.2802 713.962 25.6082 715.818 21.3842C717.738 17.0962 720.394 13.3842 723.786 10.2482C727.178 7.04816 731.178 4.58416 735.786 2.85616C740.458 1.12816 745.514 0.26416 750.954 0.26416C756.458 0.26416 761.514 1.12816 766.122 2.85616C770.73 4.58416 774.73 7.04816 778.122 10.2482C781.514 13.3842 784.138 17.0962 785.994 21.3842C787.914 25.6082 788.874 30.2802 788.874 35.4002C788.874 40.4562 787.914 45.1282 785.994 49.4162C784.138 53.7042 781.514 57.4482 778.122 60.6482C774.73 63.7842 770.73 66.2162 766.122 67.9442C761.514 69.6722 756.458 70.5362 750.954 70.5362ZM750.954 52.2002C753.066 52.2002 755.018 51.8162 756.81 51.0482C758.666 50.2802 760.266 49.1922 761.61 47.7842C763.018 46.3122 764.106 44.5522 764.874 42.5042C765.642 40.3922 766.026 38.0242 766.026 35.4002C766.026 32.7762 765.642 30.4402 764.874 28.3922C764.106 26.2802 763.018 24.5202 761.61 23.1122C760.266 21.6402 758.666 20.5202 756.81 19.7522C755.018 18.9842 753.066 18.6002 750.954 18.6002C748.842 18.6002 746.858 18.9842 745.002 19.7522C743.21 20.5202 741.61 21.6402 740.202 23.1122C738.858 24.5202 737.802 26.2802 737.034 28.3922C736.266 30.4402 735.882 32.7762 735.882 35.4002C735.882 38.0242 736.266 40.3922 737.034 42.5042C737.802 44.5522 738.858 46.3122 740.202 47.7842C741.61 49.1922 743.21 50.2802 745.002 51.0482C746.858 51.8162 748.842 52.2002 750.954 52.2002Z" fill="url(#paint9_linear_792_1290)"/>
<path d="M822.153 70.5362C816.521 70.5362 811.081 69.8962 805.833 68.6162C800.585 67.3362 796.265 65.6722 792.873 63.6242L800.169 47.1122C803.369 48.9682 806.921 50.4722 810.825 51.6242C814.793 52.7122 818.633 53.2562 822.345 53.2562C824.521 53.2562 826.217 53.1282 827.433 52.8722C828.713 52.5522 829.641 52.1362 830.217 51.6242C830.793 51.0482 831.081 50.3762 831.081 49.6082C831.081 48.3922 830.409 47.4322 829.065 46.7282C827.721 46.0242 825.929 45.4482 823.689 45.0002C821.513 44.4882 819.113 43.9762 816.489 43.4642C813.865 42.8882 811.209 42.1522 808.521 41.2562C805.897 40.3602 803.465 39.1762 801.225 37.7042C799.049 36.2322 797.289 34.3122 795.945 31.9442C794.601 29.5122 793.929 26.5042 793.929 22.9202C793.929 18.7602 795.081 14.9842 797.385 11.5922C799.753 8.13616 803.241 5.38416 807.849 3.33616C812.521 1.28816 818.313 0.26416 825.225 0.26416C829.769 0.26416 834.249 0.74416 838.665 1.70416C843.081 2.66416 847.049 4.13616 850.569 6.12016L843.753 22.5362C840.425 20.8722 837.193 19.6242 834.057 18.7922C830.985 17.9602 827.977 17.5442 825.033 17.5442C822.857 17.5442 821.129 17.7362 819.849 18.1202C818.569 18.5042 817.641 19.0162 817.065 19.6562C816.553 20.2962 816.297 21.0002 816.297 21.7682C816.297 22.9202 816.969 23.8482 818.313 24.5522C819.657 25.1922 821.417 25.7362 823.593 26.1842C825.833 26.6322 828.265 27.1122 830.889 27.6242C833.577 28.1362 836.233 28.8402 838.857 29.7362C841.481 30.6322 843.881 31.8162 846.057 33.2882C848.297 34.7602 850.089 36.6802 851.433 39.0482C852.777 41.4162 853.449 44.3602 853.449 47.8802C853.449 51.9762 852.265 55.7522 849.897 59.2082C847.593 62.6002 844.137 65.3522 839.529 67.4642C834.921 69.5122 829.129 70.5362 822.153 70.5362Z" fill="url(#paint10_linear_792_1290)"/>
<path d="M860.191 69.0002V1.80016H882.847V69.0002H860.191Z" fill="url(#paint11_linear_792_1290)"/>
<path d="M908.345 69.0002V19.3682H888.665V1.80016H950.681V19.3682H931.001V69.0002H908.345Z" fill="url(#paint12_linear_792_1290)"/>
<path d="M956.566 69.0002V1.80016H979.222V69.0002H956.566Z" fill="url(#paint13_linear_792_1290)"/>
<path d="M1011.25 69.0002L982.832 1.80016H1007.22L1030.35 58.5362H1015.86L1039.66 1.80016H1061.94L1033.52 69.0002H1011.25Z" fill="url(#paint14_linear_792_1290)"/>
<path d="M1084.93 26.7602H1114.88V43.0802H1084.93V26.7602ZM1086.46 51.9122H1120.06V69.0002H1064.19V1.80016H1118.81V18.8882H1086.46V51.9122Z" fill="url(#paint15_linear_792_1290)"/>
<path d="M1128.78 69.0002V1.80016H1151.44V51.4322H1181.78V69.0002H1128.78Z" fill="url(#paint16_linear_792_1290)"/>
<path d="M1198.56 69.0002V39.5282L1203.75 53.0642L1173.22 1.80016H1197.12L1217.76 36.8402H1203.84L1224.68 1.80016H1246.56L1216.23 53.0642L1221.22 39.5282V69.0002H1198.56Z" fill="url(#paint17_linear_792_1290)"/>
<defs>
<linearGradient id="paint0_linear_792_1290" x1="0.959961" y1="0.26416" x2="1019.17" y2="517.86" gradientUnits="userSpaceOnUse">
<stop stop-color="#FF9040"/>
<stop offset="1" stop-color="#7862FF"/>
</linearGradient>
<linearGradient id="paint1_linear_792_1290" x1="0.959961" y1="0.26416" x2="1019.17" y2="517.86" gradientUnits="userSpaceOnUse">
<stop stop-color="#FF9040"/>
<stop offset="1" stop-color="#7862FF"/>
</linearGradient>
<linearGradient id="paint2_linear_792_1290" x1="0.959961" y1="0.26416" x2="1019.17" y2="517.86" gradientUnits="userSpaceOnUse">
<stop stop-color="#FF9040"/>
<stop offset="1" stop-color="#7862FF"/>
</linearGradient>
<linearGradient id="paint3_linear_792_1290" x1="0.959961" y1="0.26416" x2="1019.17" y2="517.86" gradientUnits="userSpaceOnUse">
<stop stop-color="#FF9040"/>
<stop offset="1" stop-color="#7862FF"/>
</linearGradient>
<linearGradient id="paint4_linear_792_1290" x1="0.959961" y1="0.26416" x2="1019.17" y2="517.86" gradientUnits="userSpaceOnUse">
<stop stop-color="#FF9040"/>
<stop offset="1" stop-color="#7862FF"/>
</linearGradient>
<linearGradient id="paint5_linear_792_1290" x1="0.959961" y1="0.26416" x2="1019.17" y2="517.86" gradientUnits="userSpaceOnUse">
<stop stop-color="#FF9040"/>
<stop offset="1" stop-color="#7862FF"/>
</linearGradient>
<linearGradient id="paint6_linear_792_1290" x1="0.959961" y1="0.26416" x2="1019.17" y2="517.86" gradientUnits="userSpaceOnUse">
<stop stop-color="#FF9040"/>
<stop offset="1" stop-color="#7862FF"/>
</linearGradient>
<linearGradient id="paint7_linear_792_1290" x1="0.959961" y1="0.26416" x2="1019.17" y2="517.86" gradientUnits="userSpaceOnUse">
<stop stop-color="#FF9040"/>
<stop offset="1" stop-color="#7862FF"/>
</linearGradient>
<linearGradient id="paint8_linear_792_1290" x1="0.959961" y1="0.26416" x2="1019.17" y2="517.86" gradientUnits="userSpaceOnUse">
<stop stop-color="#FF9040"/>
<stop offset="1" stop-color="#7862FF"/>
</linearGradient>
<linearGradient id="paint9_linear_792_1290" x1="0.959961" y1="0.26416" x2="1019.17" y2="517.86" gradientUnits="userSpaceOnUse">
<stop stop-color="#FF9040"/>
<stop offset="1" stop-color="#7862FF"/>
</linearGradient>
<linearGradient id="paint10_linear_792_1290" x1="0.959961" y1="0.26416" x2="1019.17" y2="517.86" gradientUnits="userSpaceOnUse">
<stop stop-color="#FF9040"/>
<stop offset="1" stop-color="#7862FF"/>
</linearGradient>
<linearGradient id="paint11_linear_792_1290" x1="0.959961" y1="0.26416" x2="1019.17" y2="517.86" gradientUnits="userSpaceOnUse">
<stop stop-color="#FF9040"/>
<stop offset="1" stop-color="#7862FF"/>
</linearGradient>
<linearGradient id="paint12_linear_792_1290" x1="0.959961" y1="0.26416" x2="1019.17" y2="517.86" gradientUnits="userSpaceOnUse">
<stop stop-color="#FF9040"/>
<stop offset="1" stop-color="#7862FF"/>
</linearGradient>
<linearGradient id="paint13_linear_792_1290" x1="0.959961" y1="0.26416" x2="1019.17" y2="517.86" gradientUnits="userSpaceOnUse">
<stop stop-color="#FF9040"/>
<stop offset="1" stop-color="#7862FF"/>
</linearGradient>
<linearGradient id="paint14_linear_792_1290" x1="0.959961" y1="0.26416" x2="1019.17" y2="517.86" gradientUnits="userSpaceOnUse">
<stop stop-color="#FF9040"/>
<stop offset="1" stop-color="#7862FF"/>
</linearGradient>
<linearGradient id="paint15_linear_792_1290" x1="0.959961" y1="0.26416" x2="1019.17" y2="517.86" gradientUnits="userSpaceOnUse">
<stop stop-color="#FF9040"/>
<stop offset="1" stop-color="#7862FF"/>
</linearGradient>
<linearGradient id="paint16_linear_792_1290" x1="0.959961" y1="0.26416" x2="1019.17" y2="517.86" gradientUnits="userSpaceOnUse">
<stop stop-color="#FF9040"/>
<stop offset="1" stop-color="#7862FF"/>
</linearGradient>
<linearGradient id="paint17_linear_792_1290" x1="0.959961" y1="0.26416" x2="1019.17" y2="517.86" gradientUnits="userSpaceOnUse">
<stop stop-color="#FF9040"/>
<stop offset="1" stop-color="#7862FF"/>
</linearGradient>
</defs>
</svg>
